# xmcd
#
# Track frame offsets: 
#        182
#        15320
#        32767
#        44727
#        55857
#        73237
#        84150
#        96620
#        119447
#        131732
#        144265
#        158260
#        168967
#        180372
#        193367
#        205745
#        217702
#        230380
#        239605
#        250752
#        261012
#        272905
#        289530
#        301777
#        311382
#        320702
#        332067
#
# Disc length: 4573 seconds
#
# Revision: 2
# Processed by: cddbd v1.5.2PL0 Copyright (c) Steve Scherf et al.
# Submitted via: ExactAudioCopyFreeDBPlugin 1.0
#
DISCID=7c11db1b
DTITLE=Various Artist - The Boogie Woogie Boys
DYEAR=1994
DGENRE=Blues
TTITLE0=Meade Lux Lewis - Honky Tonk Train Blues
TTITLE1=Albert Ammons - Pine Top's Boogie Woogie
TTITLE2=Meade Lux Lewis - Yancey Special
TTITLE3=Pete Johnson - Low-Down Dog
TTITLE4=Albert Ammons - Boogie Woogie Stomp
TTITLE5=Albert Ammons Pete Johnson Meade Lux Lewis - Jumpin' Blues
TTITLE6=Meade Lux Lewis - Honky Tonk Train Blues
TTITLE7=Albert Ammons and Meade Lux Lewis - Double-Up Blues
TTITLE8=Albert Ammons and Pete Johnson - Boogie Woogie Man [Take 1]
TTITLE9=Albert Ammons and Pete Johnson - Boogie Woogie Man [Take 2]
TTITLE10=Albert Ammons and Pete Johnson - Barrel House Boogie
TTITLE11=Albert Ammons and Pete Johnson - Cuttin' the Boogie
TTITLE12=Albert Ammons and Pete Johnson - Foot Pedal Boogie
TTITLE13=Albert Ammons and Pete Johnson - Walkin' the Boogie
TTITLE14=Albert Ammons and Pete Johnson - Sixth Avenue Express
TTITLE15=Albert Ammons and Pete Johnson - Pine Creek
TTITLE16=Albert Ammons and Pete Johnson - Movin' the Boogie
TTITLE17=Albert Ammons and Pete Johnson - Boogie Woogie Prayer
TTITLE18=Albert Ammons and Pete Johnson - Foot Pedal Boogie
TTITLE19=Albert Ammons and Pete Johnson - Jumpin' the Boogie
TTITLE20=Albert Ammons and Pete Johnson - Cuttin' the Boogie
TTITLE21=Albert Ammons and Pete Johnson - St. Louis Blues
TTITLE22=Albert Ammons and Pete Johnson - Oh, Lady Be Good
TTITLE23=Albert Ammons and Pete Johnson - The Sheik of Araby
TTITLE24=Albert Ammons and Pete Johnson - Pistol Packin' Mama
TTITLE25=Albert Ammons and Pete Johnson - Rumboogie
TTITLE26=Albert Ammons and Pete Johnson - Boogie Woogie Man
EXTD=YEAR: 1939
EXTT0=
EXTT1=
EXTT2=
EXTT3=
EXTT4=
EXTT5=
EXTT6=
EXTT7=
EXTT8=
EXTT9=
EXTT10=
EXTT11=
EXTT12=
EXTT13=
EXTT14=
EXTT15=
EXTT16=
EXTT17=
EXTT18=
EXTT19=
EXTT20=
EXTT21=
EXTT22=
EXTT23=
EXTT24=
EXTT25=
EXTT26=
PLAYORDER=
